# xmcd
#
# Track frame offsets:
# 150
# 12776
# 23947
# 38506
# 57259
# 69515
# 84782
# 97752
# 112818
# 123405
# 140311
# 162790
# 177558
#
# Disc length: 2518 seconds
#
#
# Revision: 0
# Processed by: cddbd v1.5.2PL0 Copyright (c) Steve Scherf et al.
# Submitted via: Nero 7, 11, 10, 0 
#
DISCID=9309d40d
DTITLE=Per and The Ouagadougou Boogie Oogie Band - We Got To Talk
DYEAR=1999
DGENRE=Blues
TTITLE0=We Got To Talk
TTITLE1=Can't Kick My Habit
TTITLE2=As I'm Your Lover
TTITLE3=Hollow And Empty
TTITLE4=I Hope For One
TTITLE5=Liquor In My Life
TTITLE6=Ten Past One
TTITLE7=You Got Yourself
TTITLE8=Don't Push It
TTITLE9=Where, Why And How
TTITLE10=If You Can't Do Me No Better
TTITLE11=Can't Help Myself
TTITLE12=Ten Times About Nothing
EXTD=
EXTT0=We Got To Talk
EXTT1=Can't Kick My Habit
EXTT2=As I'm Your Lover
EXTT3=Hollow And Empty
EXTT4=I Hope For One
EXTT5=Liquor In My Life
EXTT6=Ten Past One
EXTT7=You Got Yourself
EXTT8=Don't Push It
EXTT9=Where, Why And How
EXTT10=If You Can't Do Me No Better
EXTT11=Can't Help Myself
EXTT12=Ten Times About Nothing
PLAYORDER=
